# xmcd
#
# Track frame offsets:
#	150
#	14135
#	27277
#	67401
#	78028
#	89735
#	106037
#	127057
#	143904
#	155516
#	168238
#	179010
#	193017
#	210227
#	222802
#	237219
# Disc length: 3346 seconds
# Revision: 2
# Processed by: cddbd v1.5.2PL0 Copyright (c) Steve Scherf et al.
#
# Submitted via: libkcddb 0.31
#
DISCID=e40d1010
DTITLE=Bread - Heroes Of PopMusic
DYEAR=1900
DGENRE=Unknown
TTITLE0=Everything I Own
TTITLE1=Lost Without Your Love
TTITLE2=Clouds
TTITLE3=Let Your Love Go
TTITLE4=Sweet Surrender
TTITLE5=Aubrey
TTITLE6=Lorilee
TTITLE7=The Guitar Man
TTITLE8=If
TTITLE9=It Don't Matter To Me
TTITLE10=Baby I'm A Want You
TTITLE11=Diary
TTITLE12=Ann
TTITLE13=Goodbye Girl
TTITLE14=Make It With You
TTITLE15=Never Let Her Go
EXTD=
EXTT0=
EXTT1=
EXTT2=
EXTT3=
EXTT4=
EXTT5=
EXTT6=
EXTT7=
EXTT8=
EXTT9=
EXTT10=
EXTT11=
EXTT12=
EXTT13=
EXTT14=
EXTT15=
PLAYORDER=
